<?xml version="1.0" encoding="UTF-8"?><svg id="Calque_2" xmlns="http://www.w3.org/2000/svg" viewBox="0 0 760.8 760.8"><defs><style>.cls-1{fill:#f6f6f6;font-family:Outfit-Bold, Outfit;font-size:63px;}</style></defs><g id="Calque_3"><text class="cls-1" transform="translate(165.94 426.74) rotate(-97.02)"><tspan x="0" y="0">P</tspan></text><text class="cls-1" transform="translate(161.6 388.93) rotate(-88.62)"><tspan x="0" y="0">r</tspan></text><text class="cls-1" transform="translate(161.7 364.24) rotate(-81.08)"><tspan x="0" y="0">o</tspan></text><text class="cls-1" transform="translate(167.62 329.7) rotate(-74.36)"><tspan x="0" y="0">j</tspan></text><text class="cls-1" transform="translate(171.41 314.08) rotate(-67.85)"><tspan x="0" y="0">e</tspan></text><text class="cls-1" transform="translate(183.85 283.99) rotate(-60.51)"><tspan x="0" y="0">t</tspan></text><text class="cls-1" transform="translate(196.01 262.97) rotate(-55.89)"><tspan x="0" y="0"> </tspan></text><text class="cls-1" transform="translate(201.51 253.54) rotate(-49.8)"><tspan x="0" y="0">d</tspan></text><text class="cls-1" transform="translate(224.67 226.11) rotate(-40.81)"><tspan x="0" y="0">é</tspan></text><text class="cls-1" transform="translate(249.21 204.76) rotate(-32.33)"><tspan x="0" y="0">v</tspan></text><text class="cls-1" transform="translate(275.74 187.74) rotate(-23.95)"><tspan x="0" y="0">e</tspan></text><text class="cls-1" transform="translate(306.4 174.6) rotate(-17.57)"><tspan x="0" y="0">l</tspan></text><text class="cls-1" transform="translate(320.78 169.39) rotate(-11.01)"><tspan x="0" y="0">o</tspan></text><text class="cls-1" transform="translate(354.79 162.59) rotate(-1.84)"><tspan x="0" y="0">p</tspan></text><text class="cls-1" transform="translate(390.61 161.3) rotate(7.52)"><tspan x="0" y="0">p</tspan></text><text class="cls-1" transform="translate(426.19 165.99) rotate(16.56)"><tspan x="0" y="0">e</tspan></text><text class="cls-1" transform="translate(457.86 174.16) rotate(27.82)"><tspan x="0" y="0">m</tspan></text><text class="cls-1" transform="translate(504.35 199.62) rotate(38.92)"><tspan x="0" y="0">e</tspan></text><text class="cls-1" transform="translate(530.13 220.21) rotate(47.71)"><tspan x="0" y="0">n</tspan></text><text class="cls-1" transform="translate(553.01 245.73) rotate(55.32)"><tspan x="0" y="0">t</tspan></text><text class="cls-1" transform="translate(566.62 265.81) rotate(59.99)"><tspan x="0" y="0"> </tspan></text><text class="cls-1" transform="translate(573.14 274.4) rotate(67.7)"><tspan x="0" y="0">w</tspan></text><text class="cls-1" transform="translate(590.55 318.03) rotate(78.01)"><tspan x="0" y="0">e</tspan></text><text class="cls-1" transform="translate(597.62 350.2) rotate(86.96)"><tspan x="0" y="0">b</tspan></text><text class="cls-1" transform="translate(598.93 386.52) rotate(93.12)"><tspan x="0" y="0"> </tspan></text><text class="cls-1" transform="translate(598.32 397.94) rotate(96.12)"><tspan x="0" y="0"> </tspan></text><text class="cls-1" transform="translate(597.12 409.28) rotate(99.11)"><tspan x="0" y="0"> </tspan></text><text class="cls-1" transform="translate(595.32 420.56) rotate(102.11)"><tspan x="0" y="0"> </tspan></text><text class="cls-1" transform="translate(592.94 431.73) rotate(105.12)"><tspan x="0" y="0"> </tspan></text><text class="cls-1" transform="translate(589.98 442.75) rotate(108.14)"><tspan x="0" y="0"> </tspan></text><text class="cls-1" transform="translate(586.44 453.6) rotate(111.15)"><tspan x="0" y="0"> </tspan></text><text class="cls-1" transform="translate(582.33 464.26) rotate(114.17)"><tspan x="0" y="0"> </tspan></text><text class="cls-1" transform="translate(577.67 474.68) rotate(117.18)"><tspan x="0" y="0"> </tspan></text><text class="cls-1" transform="translate(572.47 484.83) rotate(120.17)"><tspan x="0" y="0"> </tspan></text><text class="cls-1" transform="translate(566.74 494.71) rotate(123.16)"><tspan x="0" y="0"> </tspan></text><text class="cls-1" transform="translate(560.5 504.29) rotate(126.12)"><tspan x="0" y="0"> </tspan></text><text class="cls-1" transform="translate(555.09 513.65) rotate(133.27)"><tspan x="0" y="0">H</tspan></text><text class="cls-1" transform="translate(524.8 545.69) rotate(144.1)"><tspan x="0" y="0">T</tspan></text><text class="cls-1" transform="translate(494.29 568.91) rotate(155.96)"><tspan x="0" y="0">M</tspan></text><text class="cls-1" transform="translate(446.47 589.45) rotate(167.12)"><tspan x="0" y="0">L</tspan></text><text class="cls-1" transform="translate(413.43 596.49) rotate(172.88)"><tspan x="0" y="0"> </tspan></text><text class="cls-1" transform="translate(402.85 598.83) rotate(179.76)"><tspan x="0" y="0">C</tspan></text><text class="cls-1" transform="translate(361.94 598.94) rotate(-170.42)"><tspan x="0" y="0">S</tspan></text><text class="cls-1" transform="translate(328.34 593.48) rotate(-161.46)"><tspan x="0" y="0">S</tspan></text><text class="cls-1" transform="translate(294.8 581.6) rotate(-155.33)"><tspan x="0" y="0"> </tspan></text><text class="cls-1" transform="translate(286.1 578.28) rotate(-150.06)"><tspan x="0" y="0">J</tspan></text><text class="cls-1" transform="translate(258.7 562.81) rotate(-141.51)"><tspan x="0" y="0">S</tspan></text></g></svg>