<?xml version="1.0" encoding="UTF-8"?><svg id="Calque_2" xmlns="http://www.w3.org/2000/svg" viewBox="0 0 750.56 750.56"><defs><style>.cls-1{font-size:63px;}.cls-1,.cls-2{fill:#f6f6f6;font-family:Outfit-Bold, Outfit;}.cls-3{letter-spacing:-.01em;}.cls-2{font-size:49px;}.cls-4{fill:#fff5a2;}.cls-5{fill:#bfe4f9;}.cls-6{letter-spacing:-.01em;}.cls-7{fill:#1d1d1b;font-family:MyriadPro-Regular, 'Myriad Pro';font-size:12px;}</style></defs><g id="Calque_3"><g><polygon class="cls-5" points="181.63 416.07 170.6 426.32 166.45 440.79 156.93 429.96 142.97 426.37 154 416.12 158.16 401.65 167.67 412.48 181.63 416.07"/><g><polygon class="cls-5" points="505.23 550.09 501.84 556.55 502.47 563.81 496.02 560.42 488.76 561.05 492.14 554.6 491.51 547.34 497.96 550.72 505.23 550.09"/><g><polygon class="cls-4" points="561 507.83 553.25 509.15 547.45 514.44 546.12 506.69 540.83 500.89 548.58 499.56 554.39 494.27 555.71 502.02 561 507.83"/><text class="cls-1" transform="translate(157.64 347.45) rotate(-77.54)"><tspan x="0" y="0">P</tspan></text><text class="cls-1" transform="translate(166.16 310.36) rotate(-69.14)"><tspan x="0" y="0">r</tspan></text><text class="cls-1" transform="translate(174.49 287.12) rotate(-61.6)"><tspan x="0" y="0">o</tspan></text><text class="cls-1" transform="translate(191.58 256.53) rotate(-54.88)"><tspan x="0" y="0">j</tspan></text><text class="cls-1" transform="translate(200.37 243.07) rotate(-48.37)"><tspan x="0" y="0">e</tspan></text><text class="cls-1" transform="translate(222.13 218.85) rotate(-41.03)"><tspan x="0" y="0">t</tspan></text><text class="cls-1" transform="translate(240.6 203.08) rotate(-36.41)"><tspan x="0" y="0"> </tspan></text><text class="cls-1" transform="translate(248.95 196.01) rotate(-30.31)"><tspan x="0" y="0">d</tspan></text><text class="cls-1" transform="translate(279.91 177.89) rotate(-21.33)"><tspan x="0" y="0">é</tspan></text><text class="cls-1" transform="translate(310.17 165.95) rotate(-12.85)"><tspan x="0" y="0">v</tspan></text><text class="cls-1" transform="translate(340.86 158.75) rotate(-4.47)"><tspan x="0" y="0">e</tspan></text><text class="cls-1" transform="translate(374.14 156.59) rotate(1.91)"><tspan x="0" y="0">l</tspan></text><text class="cls-1" transform="translate(389.46 156.47) rotate(8.48)"><tspan x="0" y="0">o</tspan></text><text class="cls-1" transform="translate(423.77 161.4) rotate(17.64)"><tspan x="0" y="0">p</tspan></text><text class="cls-1" transform="translate(457.97 172.13) rotate(27)"><tspan x="0" y="0">p</tspan></text><text class="cls-1" transform="translate(489.96 188.42) rotate(36.04)"><tspan x="0" y="0">e</tspan></text><text class="cls-1" transform="translate(517.1 206.7) rotate(47.31)"><tspan x="0" y="0">m</tspan></text><text class="cls-1" transform="translate(552.42 246.19) rotate(58.41)"><tspan x="0" y="0">e</tspan></text><text class="cls-1" transform="translate(569.86 274.2) rotate(67.19)"><tspan x="0" y="0">n</tspan></text><text class="cls-1" transform="translate(582.92 305.89) rotate(74.8)"><tspan x="0" y="0">t</tspan></text><text class="cls-1" transform="translate(589.06 329.35) rotate(79.46)"><tspan x="0" y="0"> </tspan></text><text class="cls-1" transform="translate(592.34 339.63) rotate(87.18)"><tspan x="0" y="0">w</tspan></text><text class="cls-1" transform="translate(594.2 386.56) rotate(97.49)"><tspan x="0" y="0">e</tspan></text><text class="cls-1" transform="translate(590.14 419.27) rotate(106.45)"><tspan x="0" y="0">b</tspan></text><text class="cls-1" transform="translate(579.26 453.93) rotate(112.6)"><tspan x="0" y="0"> </tspan></text><text class="cls-1" transform="translate(574.87 464.49) rotate(115.6)"><tspan x="0" y="0"> </tspan></text><text class="cls-1" transform="translate(569.95 474.8) rotate(118.6)"><tspan x="0" y="0"> </tspan></text><text class="cls-1" transform="translate(564.5 484.84) rotate(121.6)"><tspan x="0" y="0"> </tspan></text><text class="cls-1" transform="translate(558.53 494.56) rotate(124.61)"><tspan x="0" y="0"> </tspan></text><text class="cls-1" transform="translate(552.07 503.96) rotate(127.62)"><tspan x="0" y="0"> </tspan></text><text class="cls-1" transform="translate(545.11 513) rotate(130.63)"><tspan x="0" y="0"> </tspan></text><text class="cls-1" transform="translate(537.69 521.68) rotate(133.65)"><tspan x="0" y="0"> </tspan></text><text class="cls-1" transform="translate(529.82 529.95) rotate(136.66)"><tspan x="0" y="0"> </tspan></text><text class="cls-1" transform="translate(521.53 537.79) rotate(139.65)"><tspan x="0" y="0"> </tspan></text><text class="cls-1" transform="translate(512.84 545.2) rotate(142.64)"><tspan x="0" y="0"> </tspan></text><text class="cls-1" transform="translate(503.76 552.14) rotate(145.6)"><tspan x="0" y="0"> </tspan></text><text class="cls-1" transform="translate(494.35 558.61) rotate(148.53)"><tspan x="0" y="0"> </tspan></text><text class="cls-1" transform="translate(484.61 564.58) rotate(151.5)"><tspan x="0" y="0"> </tspan></text><text class="cls-1" transform="translate(474.58 570.04) rotate(154.48)"><tspan x="0" y="0"> </tspan></text><text class="cls-1" transform="translate(464.26 574.99) rotate(157.49)"><tspan x="0" y="0"> </tspan></text><text class="cls-1" transform="translate(453.75 579.36) rotate(160.49)"><tspan x="0" y="0"> </tspan></text><text class="cls-2" transform="translate(443.67 583.65) rotate(166.51)"><tspan x="0" y="0">H</tspan></text><text class="cls-2" transform="translate(410.35 591.59) rotate(174.94)"><tspan x="0" y="0">T</tspan></text><text class="cls-2" transform="translate(380.78 594.77) rotate(-175.9)"><tspan x="0" y="0">M</tspan></text><text class="cls-2" transform="translate(340.43 591.44) rotate(-167.25)"><tspan x="0" y="0">L</tspan></text><text class="cls-2" transform="translate(314.88 585.34) rotate(-162.77)"><tspan x="0" y="0"> </tspan></text><text class="cls-2" transform="translate(306.71 583.45) rotate(-157.4)"><tspan x="0" y="0">C</tspan></text><text class="cls-2" transform="translate(277.37 571.2) rotate(-149.75)"><tspan x="0" y="0">S</tspan></text><text class="cls-2" transform="translate(254.47 557.99) rotate(-142.79)"><tspan x="0" y="0">S</tspan></text><text class="cls-2" transform="translate(232.65 540.97) rotate(-138.02)"><tspan x="0" y="0"> </tspan></text><text class="cls-2" transform="translate(227.04 536.43) rotate(-133.92)"><tspan x="0" y="0">J</tspan></text><text class="cls-2" transform="translate(209.95 518.91) rotate(-127.18)"><tspan x="0" y="0">S</tspan></text></g></g><text class="cls-7" transform="translate(505.56 580.13)"><tspan class="cls-3" x="0" y="0">L</tspan><tspan x="5.5" y="0">o</tspan><tspan class="cls-6" x="12.08" y="0">r</tspan><tspan x="15.89" y="0">em ipsum</tspan></text></g></g></svg>