<?xml version="1.0" encoding="UTF-8"?><svg id="Calque_2" xmlns="http://www.w3.org/2000/svg" viewBox="0 0 696.03 715.15"><defs><style>.cls-1{fill:#f6f6f6;font-family:Outfit-Bold, Outfit;font-size:63px;}.cls-2{fill:#fff5a2;}.cls-3{fill:#bfe4f9;}</style></defs><g id="Calque_3"><g><polygon class="cls-3" points="127.14 416.05 116.11 426.3 111.95 440.77 102.44 429.94 88.48 426.35 99.51 416.1 103.66 401.63 113.18 412.46 127.14 416.05"/><g><polygon class="cls-3" points="450.73 550.07 447.35 556.53 447.98 563.79 441.52 560.4 434.26 561.03 437.65 554.58 437.02 547.32 443.47 550.7 450.73 550.07"/><g><polygon class="cls-2" points="506.5 507.81 498.76 509.13 492.95 514.42 491.63 506.67 486.34 500.86 494.09 499.54 499.89 494.25 501.21 502 506.5 507.81"/><text class="cls-1" transform="translate(103.11 347.45) rotate(-77.54)"><tspan x="0" y="0">P</tspan></text><text class="cls-1" transform="translate(111.62 310.36) rotate(-69.14)"><tspan x="0" y="0">r</tspan></text><text class="cls-1" transform="translate(119.95 287.12) rotate(-61.6)"><tspan x="0" y="0">o</tspan></text><text class="cls-1" transform="translate(137.05 256.53) rotate(-54.88)"><tspan x="0" y="0">j</tspan></text><text class="cls-1" transform="translate(145.83 243.07) rotate(-48.37)"><tspan x="0" y="0">e</tspan></text><text class="cls-1" transform="translate(167.6 218.85) rotate(-41.03)"><tspan x="0" y="0">t</tspan></text><text class="cls-1" transform="translate(186.07 203.08) rotate(-36.41)"><tspan x="0" y="0"> </tspan></text><text class="cls-1" transform="translate(194.42 196.01) rotate(-30.31)"><tspan x="0" y="0">d</tspan></text><text class="cls-1" transform="translate(225.38 177.89) rotate(-21.33)"><tspan x="0" y="0">é</tspan></text><text class="cls-1" transform="translate(255.63 165.95) rotate(-12.85)"><tspan x="0" y="0">v</tspan></text><text class="cls-1" transform="translate(286.32 158.75) rotate(-4.47)"><tspan x="0" y="0">e</tspan></text><text class="cls-1" transform="translate(319.61 156.59) rotate(1.91)"><tspan x="0" y="0">l</tspan></text><text class="cls-1" transform="translate(334.93 156.47) rotate(8.48)"><tspan x="0" y="0">o</tspan></text><text class="cls-1" transform="translate(369.24 161.4) rotate(17.64)"><tspan x="0" y="0">p</tspan></text><text class="cls-1" transform="translate(403.43 172.13) rotate(27)"><tspan x="0" y="0">p</tspan></text><text class="cls-1" transform="translate(435.42 188.41) rotate(36.04)"><tspan x="0" y="0">e</tspan></text><text class="cls-1" transform="translate(462.56 206.7) rotate(47.31)"><tspan x="0" y="0">m</tspan></text><text class="cls-1" transform="translate(497.88 246.19) rotate(58.41)"><tspan x="0" y="0">e</tspan></text><text class="cls-1" transform="translate(515.32 274.19) rotate(67.19)"><tspan x="0" y="0">n</tspan></text><text class="cls-1" transform="translate(528.39 305.89) rotate(74.8)"><tspan x="0" y="0">t</tspan></text><text class="cls-1" transform="translate(534.52 329.35) rotate(79.47)"><tspan x="0" y="0"> </tspan></text><text class="cls-1" transform="translate(537.8 339.63) rotate(87.18)"><tspan x="0" y="0">w</tspan></text><text class="cls-1" transform="translate(539.66 386.56) rotate(97.49)"><tspan x="0" y="0">e</tspan></text><text class="cls-1" transform="translate(535.6 419.27) rotate(106.45)"><tspan x="0" y="0">b</tspan></text><text class="cls-1" transform="translate(524.72 453.93) rotate(112.6)"><tspan x="0" y="0"> </tspan></text><text class="cls-1" transform="translate(520.34 464.49) rotate(115.6)"><tspan x="0" y="0"> </tspan></text><text class="cls-1" transform="translate(515.41 474.8) rotate(118.6)"><tspan x="0" y="0"> </tspan></text><text class="cls-1" transform="translate(509.96 484.84) rotate(121.6)"><tspan x="0" y="0"> </tspan></text><text class="cls-1" transform="translate(504 494.56) rotate(124.61)"><tspan x="0" y="0"> </tspan></text><text class="cls-1" transform="translate(497.53 503.96) rotate(127.62)"><tspan x="0" y="0"> </tspan></text><text class="cls-1" transform="translate(490.58 513) rotate(130.63)"><tspan x="0" y="0"> </tspan></text><text class="cls-1" transform="translate(483.15 521.68) rotate(133.65)"><tspan x="0" y="0"> </tspan></text><text class="cls-1" transform="translate(475.28 529.95) rotate(136.66)"><tspan x="0" y="0"> </tspan></text><text class="cls-1" transform="translate(467 537.79) rotate(139.65)"><tspan x="0" y="0"> </tspan></text><text class="cls-1" transform="translate(458.3 545.19) rotate(142.64)"><tspan x="0" y="0"> </tspan></text><text class="cls-1" transform="translate(449.22 552.14) rotate(145.6)"><tspan x="0" y="0"> </tspan></text><text class="cls-1" transform="translate(439.81 558.6) rotate(148.53)"><tspan x="0" y="0"> </tspan></text></g></g></g></g></svg>