<?xml version="1.0" encoding="UTF-8"?><svg id="Calque_2" xmlns="http://www.w3.org/2000/svg" viewBox="0 0 490.65 500.54"><defs><style>.cls-1{fill:#f6f6f6;font-family:Outfit-Bold, Outfit;font-size:64px;}</style></defs><g id="Calque_3"><text class="cls-1" transform="translate(51.11 130.25) rotate(-44.47)"><tspan x="0" y="0">P</tspan></text><text class="cls-1" transform="translate(78.88 103.45) rotate(-35.94)"><tspan x="0" y="0">r</tspan></text><text class="cls-1" transform="translate(98.89 88.31) rotate(-28.28)"><tspan x="0" y="0">o</tspan></text><text class="cls-1" transform="translate(130.46 71.9) rotate(-21.47)"><tspan x="0" y="0">j</tspan></text><text class="cls-1" transform="translate(145.4 65.4) rotate(-14.85)"><tspan x="0" y="0">e</tspan></text><text class="cls-1" transform="translate(177.4 57.1) rotate(-7.41)"><tspan x="0" y="0">t</tspan></text><text class="cls-1" transform="translate(201.87 54.16) rotate(-2.73)"><tspan x="0" y="0"> </tspan></text><text class="cls-1" transform="translate(212.89 52.87) rotate(3.46)"><tspan x="0" y="0">d</tspan></text><text class="cls-1" transform="translate(249.26 55.05) rotate(12.6)"><tspan x="0" y="0">é</tspan></text><text class="cls-1" transform="translate(281.49 62.12) rotate(21.2)"><tspan x="0" y="0">v</tspan></text><text class="cls-1" transform="translate(311.41 73.51) rotate(29.7)"><tspan x="0" y="0">e</tspan></text><text class="cls-1" transform="translate(340.6 90.69) rotate(36.17)"><tspan x="0" y="0">l</tspan></text><text class="cls-1" transform="translate(353.5 99.31) rotate(42.83)"><tspan x="0" y="0">o</tspan></text><text class="cls-1" transform="translate(379.44 123.1) rotate(52.14)"><tspan x="0" y="0">p</tspan></text><text class="cls-1" transform="translate(401.89 151.73) rotate(61.64)"><tspan x="0" y="0">p</tspan></text><text class="cls-1" transform="translate(419.2 183.78) rotate(70.83)"><tspan x="0" y="0">e</tspan></text><text class="cls-1" transform="translate(431.26 214.72) rotate(82.25)"><tspan x="0" y="0">m</tspan></text><text class="cls-1" transform="translate(437.69 268.16) rotate(93.5)"><tspan x="0" y="0">e</tspan></text><text class="cls-1" transform="translate(435.84 301.58) rotate(102.45)"><tspan x="0" y="0">n</tspan></text><text class="cls-1" transform="translate(428.09 335.5) rotate(110.17)"><tspan x="0" y="0">t</tspan></text><text class="cls-1" transform="translate(419.37 358.54) rotate(114.91)"><tspan x="0" y="0"> </tspan></text><text class="cls-1" transform="translate(416.07 368.95) rotate(122.72)"><tspan x="0" y="0">w</tspan></text><text class="cls-1" transform="translate(389.9 408.83) rotate(133.17)"><tspan x="0" y="0">e</tspan></text><text class="cls-1" transform="translate(367.19 433.4) rotate(142.27)"><tspan x="0" y="0">b</tspan></text></g></svg>